<mxfile host="app.diagrams.net" agent="Mozilla/5.0 (Windows NT 10.0; Win64; x64) AppleWebKit/537.36 (KHTML, like Gecko) Chrome/135.0.0.0 Safari/537.36" version="26.2.14">
  <diagram name="Page-1" id="rHsQWTbGOgab_UMKQwIw">
    <mxGraphModel dx="3643" dy="659" grid="1" gridSize="10" guides="1" tooltips="1" connect="1" arrows="1" fold="1" page="1" pageScale="1" pageWidth="850" pageHeight="1100" math="0" shadow="0">
      <root>
        <mxCell id="0" />
        <mxCell id="1" parent="0" />
        <mxCell id="KgPdh_fEtPb9r7KRroM1-15" value="&lt;font style=&quot;font-size: 15px;&quot;&gt;Hyper-V Host Machine&lt;/font&gt;" style="rounded=1;whiteSpace=wrap;html=1;fillColor=#a20025;fontColor=light-dark(#d3b64a, #121212);strokeColor=light-dark(#ddc778, #ffc5c5);strokeWidth=4;" vertex="1" parent="1">
          <mxGeometry x="-2240" y="60" width="240" height="60" as="geometry" />
        </mxCell>
        <mxCell id="KgPdh_fEtPb9r7KRroM1-37" value="" style="edgeStyle=orthogonalEdgeStyle;rounded=0;orthogonalLoop=1;jettySize=auto;html=1;" edge="1" parent="1" source="KgPdh_fEtPb9r7KRroM1-21" target="KgPdh_fEtPb9r7KRroM1-15">
          <mxGeometry relative="1" as="geometry">
            <Array as="points">
              <mxPoint x="-2210" y="150" />
              <mxPoint x="-2210" y="150" />
            </Array>
          </mxGeometry>
        </mxCell>
        <mxCell id="KgPdh_fEtPb9r7KRroM1-42" value="" style="edgeStyle=orthogonalEdgeStyle;rounded=0;orthogonalLoop=1;jettySize=auto;html=1;" edge="1" parent="1" source="KgPdh_fEtPb9r7KRroM1-21" target="KgPdh_fEtPb9r7KRroM1-26">
          <mxGeometry relative="1" as="geometry" />
        </mxCell>
        <mxCell id="KgPdh_fEtPb9r7KRroM1-21" value="&lt;span style=&quot;font-size: 15px;&quot;&gt;Virtual Switch:&amp;nbsp;&lt;/span&gt;&lt;div&gt;&lt;font style=&quot;font-size: 13px;&quot;&gt;EDS_Internal&lt;/font&gt;&lt;/div&gt;" style="rounded=1;whiteSpace=wrap;html=1;fillColor=#a20025;fontColor=light-dark(#d3b64a, #121212);strokeColor=light-dark(#ddc778, #ffc5c5);strokeWidth=4;" vertex="1" parent="1">
          <mxGeometry x="-2280" y="150" width="130" height="60" as="geometry" />
        </mxCell>
        <mxCell id="KgPdh_fEtPb9r7KRroM1-46" value="" style="edgeStyle=orthogonalEdgeStyle;rounded=0;orthogonalLoop=1;jettySize=auto;html=1;" edge="1" parent="1" source="KgPdh_fEtPb9r7KRroM1-25" target="KgPdh_fEtPb9r7KRroM1-15">
          <mxGeometry relative="1" as="geometry">
            <Array as="points">
              <mxPoint x="-2020" y="140" />
              <mxPoint x="-2020" y="140" />
            </Array>
          </mxGeometry>
        </mxCell>
        <mxCell id="KgPdh_fEtPb9r7KRroM1-25" value="&lt;span style=&quot;font-size: 15px;&quot;&gt;Virtual Switch:&lt;/span&gt;&lt;div&gt;&lt;font&gt;EDS_Bridge (External)&lt;/font&gt;&lt;/div&gt;" style="rounded=1;whiteSpace=wrap;html=1;fillColor=#a20025;fontColor=light-dark(#d3b64a, #121212);strokeColor=light-dark(#ddc778, #ffc5c5);strokeWidth=4;" vertex="1" parent="1">
          <mxGeometry x="-2080" y="160" width="120" height="60" as="geometry" />
        </mxCell>
        <mxCell id="KgPdh_fEtPb9r7KRroM1-26" value="&lt;font style=&quot;font-size: 14px;&quot;&gt;Ubuntu VM&lt;/font&gt;" style="rounded=1;whiteSpace=wrap;html=1;fillColor=#a20025;fontColor=light-dark(#d3b64a, #121212);strokeColor=light-dark(#ddc778, #ffc5c5);strokeWidth=4;" vertex="1" parent="1">
          <mxGeometry x="-2280" y="230" width="120" height="60" as="geometry" />
        </mxCell>
        <mxCell id="KgPdh_fEtPb9r7KRroM1-45" value="" style="edgeStyle=orthogonalEdgeStyle;rounded=0;orthogonalLoop=1;jettySize=auto;html=1;" edge="1" parent="1" source="KgPdh_fEtPb9r7KRroM1-27" target="KgPdh_fEtPb9r7KRroM1-25">
          <mxGeometry relative="1" as="geometry" />
        </mxCell>
        <mxCell id="KgPdh_fEtPb9r7KRroM1-27" value="&lt;font style=&quot;font-size: 14px;&quot;&gt;Host Ethernet&lt;/font&gt;" style="rounded=1;whiteSpace=wrap;html=1;fillColor=#a20025;fontColor=light-dark(#d3b64a, #121212);strokeColor=light-dark(#ddc778, #ffc5c5);strokeWidth=4;" vertex="1" parent="1">
          <mxGeometry x="-2080" y="250" width="120" height="60" as="geometry" />
        </mxCell>
        <mxCell id="KgPdh_fEtPb9r7KRroM1-43" value="" style="edgeStyle=orthogonalEdgeStyle;rounded=0;orthogonalLoop=1;jettySize=auto;html=1;" edge="1" parent="1" source="KgPdh_fEtPb9r7KRroM1-28" target="KgPdh_fEtPb9r7KRroM1-26">
          <mxGeometry relative="1" as="geometry" />
        </mxCell>
        <mxCell id="KgPdh_fEtPb9r7KRroM1-44" value="" style="edgeStyle=orthogonalEdgeStyle;rounded=0;orthogonalLoop=1;jettySize=auto;html=1;" edge="1" parent="1" source="KgPdh_fEtPb9r7KRroM1-28" target="KgPdh_fEtPb9r7KRroM1-29">
          <mxGeometry relative="1" as="geometry" />
        </mxCell>
        <mxCell id="KgPdh_fEtPb9r7KRroM1-28" value="&lt;font style=&quot;font-size: 14px;&quot;&gt;Kali VM&lt;/font&gt;" style="rounded=1;whiteSpace=wrap;html=1;fillColor=#a20025;fontColor=light-dark(#d3b64a, #121212);strokeColor=light-dark(#ddc778, #ffc5c5);strokeWidth=4;" vertex="1" parent="1">
          <mxGeometry x="-2280" y="310" width="120" height="60" as="geometry" />
        </mxCell>
        <mxCell id="KgPdh_fEtPb9r7KRroM1-29" value="&lt;span style=&quot;font-size: 14px;&quot;&gt;Parrot VM&lt;/span&gt;" style="rounded=1;whiteSpace=wrap;html=1;fillColor=#a20025;fontColor=light-dark(#d3b64a, #121212);strokeColor=light-dark(#ddc778, #ffc5c5);strokeWidth=4;" vertex="1" parent="1">
          <mxGeometry x="-2280" y="400" width="120" height="60" as="geometry" />
        </mxCell>
      </root>
    </mxGraphModel>
  </diagram>
</mxfile>
